# xmcd
#
# Track frame offsets:
#	150
#	14001
#	26119
#	44401
#	58687
#	80113
#	95531
#	109697
#	126627
#
# Disc length: 2020 seconds
# Revision: 0
# Processed by: cddbd v1.5.2PL0 Copyright (c) Steve Scherf et al.
# Submitted via: dBpowerAMP V12.0
#
DISCID=8107e209
DTITLE=Blue Summit - Sweet Company
DYEAR=2017
DGENRE=Bluegrass
TTITLE0=If That Don't Make You Want to Go
TTITLE1=Sadie's Got Her New Dress On
TTITLE2=Gentle On My Mind
TTITLE3=Buckets of Rain
TTITLE4=Pete and the Bullfrog
TTITLE5=Sweet Company
TTITLE6=Red Clay Halo
TTITLE7=I Only Exist
TTITLE8=Mr. Bojangles
EXTD=
EXTT0=
EXTT1=
EXTT2=
EXTT3=
EXTT4=
EXTT5=
EXTT6=
EXTT7=
EXTT8=
PLAYORDER=
